<svg id="svg" version="1.1" width="400" height="193.81443298969072" viewBox="0 0 400 193.81443298969072" xmlns="http://www.w3.org/2000/svg" xmlns:xlink="http://www.w3.org/1999/xlink" ><g id="svgg"><path id="path0" d="M205.429 0.191 C 205.216 0.285,204.474 0.582,203.781 0.850 C 203.088 1.118,201.974 1.603,201.306 1.929 C 200.637 2.254,200.045 2.521,199.989 2.521 C 199.933 2.521,199.651 2.682,199.362 2.879 C 199.073 3.077,198.096 3.709,197.191 4.285 C 194.519 5.985,193.148 7.078,190.836 9.350 C 188.932 11.222,185.361 15.434,185.361 15.809 C 185.361 15.881,185.111 16.258,184.806 16.647 C 184.501 17.035,184.107 17.615,183.931 17.935 C 183.755 18.255,183.503 18.686,183.371 18.893 C 182.699 19.948,181.897 21.344,181.416 22.298 C 181.120 22.884,180.808 23.495,180.724 23.655 C 180.549 23.987,180.182 24.793,179.444 26.466 C 179.162 27.106,178.850 27.804,178.750 28.017 C 178.651 28.231,178.487 28.667,178.388 28.987 C 178.288 29.307,177.977 30.179,177.697 30.926 C 177.416 31.672,177.120 32.545,177.039 32.865 C 176.958 33.185,176.747 33.726,176.570 34.067 C 176.393 34.408,176.245 34.932,176.242 35.230 C 176.239 35.529,176.108 35.943,175.951 36.150 C 175.795 36.357,175.667 36.686,175.667 36.881 C 175.667 37.077,175.492 37.734,175.279 38.340 C 175.065 38.947,174.891 39.691,174.891 39.993 C 174.891 40.295,174.769 40.780,174.619 41.069 C 174.469 41.358,174.282 42.029,174.202 42.559 C 174.123 43.089,173.940 43.805,173.796 44.150 C 173.652 44.494,173.534 45.176,173.534 45.665 C 173.534 46.154,173.404 46.804,173.246 47.111 C 173.087 47.417,172.904 48.307,172.839 49.088 C 172.774 49.870,172.604 50.989,172.460 51.575 C 172.316 52.162,172.154 53.403,172.100 54.333 C 172.046 55.263,171.898 56.218,171.771 56.455 C 171.643 56.695,171.486 58.143,171.418 59.709 C 171.350 61.261,171.214 62.660,171.114 62.818 C 171.015 62.977,170.872 64.896,170.796 67.084 C 170.720 69.272,170.566 71.357,170.453 71.719 C 170.341 72.081,170.189 74.452,170.116 76.989 L 169.984 81.601 168.608 81.509 C 167.851 81.458,166.748 81.281,166.156 81.116 C 163.924 80.492,162.493 82.195,163.549 84.220 C 163.709 84.525,163.843 85.005,163.848 85.286 C 163.852 85.567,163.989 86.146,164.152 86.573 C 164.314 87.000,164.533 87.694,164.638 88.116 C 164.743 88.539,164.899 88.975,164.986 89.086 C 165.072 89.197,165.206 89.549,165.282 89.868 C 165.359 90.187,165.501 90.544,165.598 90.661 C 165.695 90.778,166.047 91.389,166.382 92.019 C 167.049 93.278,168.003 94.642,169.123 95.935 L 169.850 96.776 169.850 98.657 L 169.850 100.538 168.153 101.469 C 161.247 105.259,156.697 109.334,152.149 115.804 C 151.531 116.683,150.972 117.533,150.907 117.693 C 150.842 117.853,150.680 118.114,150.547 118.274 C 150.225 118.663,149.212 120.486,148.717 121.571 C 148.498 122.050,148.197 122.661,148.049 122.928 C 147.479 123.955,146.777 125.506,146.777 125.739 C 146.777 125.873,146.648 126.089,146.491 126.220 C 146.334 126.350,146.148 126.775,146.078 127.164 C 146.008 127.554,145.884 127.959,145.802 128.066 C 145.558 128.384,144.644 131.166,144.644 131.589 C 144.644 131.805,144.509 132.250,144.345 132.579 C 144.181 132.908,143.999 133.642,143.941 134.209 C 143.882 134.776,143.711 135.569,143.561 135.971 C 143.410 136.373,143.286 137.314,143.286 138.062 C 143.286 138.940,143.184 139.578,142.998 139.863 C 142.778 140.199,142.656 141.483,142.490 145.237 C 142.369 147.950,142.230 150.802,142.181 151.575 L 142.092 152.981 141.357 152.981 C 140.952 152.981,140.283 153.099,139.869 153.243 C 139.456 153.386,138.463 153.561,137.664 153.630 C 136.864 153.699,135.860 153.883,135.434 154.038 C 135.007 154.194,134.235 154.325,133.717 154.330 C 133.199 154.335,132.283 154.463,131.681 154.615 C 131.079 154.768,130.066 154.955,129.429 155.031 C 128.793 155.107,127.988 155.288,127.642 155.432 C 127.295 155.577,126.638 155.696,126.182 155.697 C 125.725 155.697,125.100 155.829,124.794 155.989 C 124.487 156.149,123.745 156.334,123.146 156.401 C 122.546 156.468,121.761 156.642,121.401 156.788 C 121.042 156.933,120.472 157.053,120.134 157.053 C 119.797 157.053,119.025 157.227,118.418 157.441 C 117.811 157.654,117.052 157.828,116.732 157.828 C 116.412 157.828,115.820 157.952,115.418 158.104 C 115.016 158.255,114.364 158.433,113.968 158.499 C 113.573 158.565,113.006 158.746,112.708 158.901 C 112.410 159.056,111.924 159.184,111.627 159.184 C 111.331 159.185,110.775 159.317,110.392 159.476 C 110.009 159.636,109.510 159.771,109.283 159.776 C 109.056 159.781,108.522 159.919,108.095 160.084 C 107.668 160.248,106.970 160.453,106.544 160.539 C 106.117 160.625,105.507 160.788,105.187 160.902 C 104.366 161.194,102.847 161.670,99.952 162.544 C 99.418 162.705,98.677 162.942,98.303 163.070 C 97.930 163.199,97.189 163.453,96.655 163.637 C 96.122 163.820,95.381 164.079,95.007 164.212 C 94.634 164.346,93.999 164.536,93.595 164.634 C 93.191 164.733,92.712 164.898,92.529 165.001 C 92.346 165.104,91.454 165.443,90.548 165.754 C 87.882 166.671,87.174 166.933,86.818 167.137 C 86.633 167.243,86.370 167.329,86.233 167.329 C 86.097 167.329,85.660 167.504,85.262 167.717 C 84.864 167.930,84.429 168.108,84.295 168.111 C 84.162 168.115,83.703 168.286,83.277 168.492 C 82.850 168.699,82.395 168.870,82.266 168.874 C 82.137 168.877,81.352 169.195,80.521 169.580 C 77.158 171.138,75.682 171.843,75.036 172.198 C 74.663 172.403,73.747 172.879,73.000 173.255 C 68.784 175.379,64.653 178.111,61.638 180.770 C 60.516 181.760,58.940 184.064,58.810 184.904 C 58.747 185.316,58.576 185.888,58.431 186.176 C 58.098 186.838,58.100 187.186,58.440 187.949 C 58.590 188.285,58.762 188.781,58.821 189.050 C 59.396 191.660,64.109 193.139,67.862 191.889 C 68.449 191.694,69.169 191.454,69.462 191.356 C 71.273 190.751,72.729 190.208,73.582 189.817 C 74.009 189.622,74.838 189.276,75.424 189.048 C 76.011 188.821,76.752 188.514,77.072 188.367 C 77.392 188.219,78.177 187.901,78.817 187.658 C 79.457 187.416,80.153 187.105,80.363 186.968 C 80.573 186.831,80.862 186.718,81.004 186.718 C 81.146 186.718,81.628 186.559,82.076 186.365 C 83.079 185.929,84.043 185.540,85.784 184.869 C 86.523 184.584,87.264 184.285,87.432 184.204 C 87.722 184.063,88.114 183.918,89.869 183.303 C 90.296 183.154,90.796 182.945,90.981 182.839 C 91.167 182.733,91.428 182.644,91.563 182.640 C 91.698 182.636,92.157 182.465,92.584 182.259 C 93.010 182.053,93.490 181.881,93.650 181.876 C 93.810 181.872,94.165 181.752,94.439 181.609 C 94.712 181.466,95.192 181.289,95.505 181.216 C 95.818 181.142,96.335 180.960,96.655 180.811 C 96.975 180.662,97.891 180.343,98.691 180.101 C 99.491 179.859,100.364 179.548,100.630 179.410 C 100.897 179.272,101.273 179.158,101.467 179.158 C 101.661 179.157,102.006 179.057,102.234 178.935 C 102.462 178.813,103.045 178.602,103.530 178.466 C 104.014 178.331,104.673 178.129,104.993 178.018 C 105.313 177.907,106.229 177.631,107.029 177.404 C 107.828 177.177,108.714 176.868,108.997 176.717 C 109.280 176.566,109.760 176.439,110.064 176.435 C 110.367 176.432,110.965 176.260,111.391 176.054 C 111.818 175.848,112.405 175.677,112.696 175.673 C 112.987 175.669,113.554 175.543,113.956 175.391 C 114.358 175.240,115.011 175.062,115.406 174.996 C 115.802 174.930,116.369 174.749,116.667 174.594 C 116.964 174.439,117.446 174.311,117.737 174.310 C 118.028 174.310,118.595 174.189,118.998 174.043 C 119.400 173.897,120.165 173.685,120.698 173.573 C 121.231 173.462,122.038 173.276,122.492 173.161 C 124.297 172.703,125.012 172.548,126.137 172.372 C 126.782 172.272,127.630 172.055,128.021 171.892 C 128.412 171.728,129.043 171.595,129.423 171.595 C 129.803 171.595,130.395 171.478,130.738 171.334 C 131.081 171.191,131.907 171.012,132.573 170.937 C 133.239 170.862,134.087 170.674,134.457 170.519 C 134.828 170.364,135.504 170.235,135.961 170.233 C 136.417 170.230,137.140 170.136,137.567 170.022 C 137.993 169.909,138.997 169.735,139.796 169.635 C 140.596 169.536,141.687 169.332,142.220 169.183 C 144.133 168.647,145.919 168.643,146.161 169.175 C 148.346 173.969,155.460 178.065,159.320 176.750 C 159.817 176.581,160.389 176.442,160.589 176.442 C 163.036 176.442,168.773 171.134,171.345 166.493 C 171.885 165.518,197.647 164.878,200.001 165.780 C 200.351 165.914,202.509 166.044,205.429 166.108 C 208.575 166.176,210.648 166.306,211.335 166.480 C 211.947 166.634,213.387 166.747,214.746 166.747 C 216.259 166.747,217.436 166.849,218.047 167.033 C 218.569 167.190,220.001 167.371,221.229 167.436 C 222.456 167.500,224.072 167.672,224.818 167.817 C 225.565 167.963,226.961 168.136,227.921 168.202 C 228.880 168.268,230.039 168.447,230.496 168.601 C 230.953 168.755,231.837 168.880,232.459 168.880 C 233.082 168.880,233.946 169.005,234.379 169.158 C 234.812 169.311,235.805 169.494,236.585 169.566 C 237.365 169.637,238.377 169.817,238.834 169.967 C 239.291 170.116,240.087 170.238,240.603 170.238 C 241.119 170.238,241.914 170.369,242.370 170.530 C 242.827 170.691,243.688 170.873,244.285 170.934 C 244.882 170.996,245.700 171.170,246.102 171.320 C 246.504 171.471,247.118 171.595,247.466 171.595 C 247.814 171.595,248.595 171.769,249.202 171.983 C 249.809 172.196,250.559 172.370,250.868 172.370 C 251.178 172.370,251.744 172.501,252.127 172.661 C 252.510 172.821,253.128 172.952,253.501 172.952 C 253.874 172.952,254.621 173.127,255.162 173.340 C 255.703 173.553,256.350 173.728,256.600 173.728 C 256.850 173.728,257.367 173.858,257.750 174.018 C 258.133 174.178,258.689 174.310,258.986 174.310 C 259.282 174.311,259.759 174.434,260.045 174.583 C 260.331 174.732,260.855 174.909,261.208 174.976 C 261.989 175.123,263.580 175.564,265.148 176.068 C 265.788 176.274,266.461 176.442,266.644 176.442 C 266.827 176.442,267.263 176.567,267.613 176.719 C 267.964 176.872,268.905 177.187,269.704 177.421 C 270.504 177.654,271.464 177.953,271.837 178.084 C 273.619 178.710,275.061 179.157,275.298 179.157 C 275.442 179.157,275.834 179.284,276.170 179.439 C 276.863 179.759,278.244 180.265,279.108 180.515 C 279.428 180.608,280.301 180.914,281.047 181.196 C 281.794 181.477,282.666 181.776,282.986 181.860 C 283.306 181.944,283.873 182.148,284.246 182.314 C 285.930 183.060,286.354 183.228,286.549 183.228 C 286.663 183.228,287.130 183.394,287.586 183.597 C 288.042 183.800,289.200 184.289,290.160 184.684 C 291.120 185.078,292.448 185.654,293.113 185.963 C 293.777 186.272,294.382 186.524,294.457 186.524 C 294.532 186.524,294.949 186.690,295.382 186.893 C 297.258 187.769,299.691 188.891,300.048 189.043 C 300.262 189.134,301.198 189.565,302.129 189.999 C 303.060 190.434,303.889 190.790,303.971 190.790 C 304.053 190.789,304.469 190.957,304.896 191.161 C 305.780 191.586,308.353 192.656,310.261 193.393 C 311.545 193.889,311.595 193.892,317.230 193.892 L 322.907 193.892 323.450 193.371 C 323.749 193.085,323.997 192.714,324.001 192.547 C 324.004 192.381,324.176 191.895,324.382 191.469 C 325.737 188.664,322.855 184.089,317.411 180.401 C 312.700 177.210,311.122 176.296,306.253 173.938 C 302.059 171.907,302.633 172.170,299.079 170.659 C 294.218 168.593,293.005 168.105,292.739 168.105 C 292.594 168.105,292.303 167.984,292.092 167.836 C 291.882 167.688,291.404 167.477,291.031 167.367 C 290.659 167.256,289.874 166.975,289.287 166.741 C 288.701 166.507,287.872 166.209,287.445 166.080 C 287.019 165.950,286.424 165.742,286.124 165.617 C 285.824 165.492,285.455 165.390,285.305 165.390 C 285.155 165.390,284.659 165.227,284.203 165.027 C 283.140 164.561,282.213 164.240,281.249 164.006 C 280.826 163.903,280.381 163.736,280.258 163.634 C 280.136 163.533,279.653 163.369,279.184 163.269 C 278.373 163.097,277.075 162.708,275.812 162.259 C 275.492 162.146,274.881 161.988,274.455 161.908 C 274.028 161.829,273.461 161.671,273.194 161.557 C 272.928 161.442,272.077 161.168,271.304 160.946 C 270.531 160.724,269.309 160.367,268.589 160.152 C 267.870 159.937,267.063 159.760,266.796 159.758 C 266.529 159.755,266.093 159.629,265.826 159.476 C 265.560 159.324,265.054 159.196,264.702 159.193 C 264.350 159.189,263.824 159.062,263.532 158.911 C 263.240 158.761,262.656 158.582,262.233 158.515 C 261.810 158.448,261.028 158.272,260.494 158.124 C 259.589 157.873,259.092 157.763,256.471 157.236 C 255.911 157.123,255.104 156.947,254.678 156.844 C 254.251 156.741,253.335 156.570,252.642 156.465 C 251.949 156.359,251.053 156.143,250.650 155.984 C 250.248 155.825,249.526 155.696,249.045 155.696 C 248.563 155.696,247.886 155.577,247.538 155.432 C 247.191 155.287,246.299 155.104,245.557 155.026 C 244.815 154.948,243.731 154.761,243.149 154.611 C 242.567 154.461,241.607 154.335,241.016 154.330 C 240.425 154.325,239.593 154.193,239.166 154.035 C 238.740 153.878,237.649 153.700,236.743 153.639 C 235.836 153.579,234.766 153.406,234.364 153.255 C 233.961 153.105,232.994 152.981,232.213 152.981 C 231.432 152.981,230.365 152.849,229.842 152.689 C 229.318 152.528,227.930 152.345,226.757 152.282 C 225.584 152.219,224.319 152.088,223.946 151.989 C 223.572 151.891,221.669 151.725,219.716 151.621 C 217.743 151.515,215.977 151.329,215.742 151.202 C 215.474 151.058,213.959 150.948,211.634 150.903 C 209.607 150.864,207.252 150.711,206.398 150.563 C 204.624 150.254,196.851 150.066,185.643 150.061 L 178.267 150.058 178.343 148.756 C 178.411 147.607,178.494 147.376,179.054 146.777 C 179.403 146.403,179.940 145.675,180.247 145.159 C 180.553 144.642,181.001 143.901,181.241 143.511 C 181.866 142.496,183.000 140.101,183.156 139.465 C 183.230 139.167,183.398 138.749,183.531 138.536 C 183.663 138.323,183.834 137.843,183.910 137.470 C 183.986 137.096,184.126 136.695,184.221 136.577 C 184.316 136.459,184.473 135.979,184.572 135.510 C 184.670 135.042,184.883 134.266,185.045 133.786 C 185.613 132.100,185.943 130.740,185.943 130.078 C 185.943 129.710,186.117 128.913,186.331 128.306 C 186.544 127.700,186.718 126.737,186.718 126.166 C 186.718 125.596,186.842 124.743,186.993 124.271 C 187.144 123.798,187.316 122.192,187.375 120.695 C 187.434 119.200,187.578 117.703,187.695 117.367 C 187.914 116.740,187.822 101.725,187.579 98.308 L 187.462 96.665 188.231 95.982 C 188.948 95.345,191.372 92.424,191.372 92.197 C 191.372 92.141,191.655 91.680,192.002 91.173 C 192.349 90.666,192.776 89.947,192.951 89.575 C 193.127 89.204,193.628 88.145,194.066 87.222 C 194.504 86.299,194.862 85.444,194.862 85.322 C 194.862 85.199,195.032 84.776,195.241 84.382 C 195.449 83.987,195.974 82.923,196.407 82.016 C 196.841 81.110,197.303 80.194,197.434 79.981 C 199.766 76.193,200.813 75.239,203.587 74.372 C 206.156 73.570,212.066 74.483,216.093 76.305 C 216.413 76.449,217.198 76.784,217.838 77.048 C 220.886 78.305,222.168 79.192,227.440 83.692 C 229.563 85.504,230.022 85.769,230.996 85.741 C 232.158 85.708,232.900 84.171,232.309 83.022 C 232.217 82.842,232.094 81.862,232.036 80.843 L 231.931 78.992 232.737 78.565 C 233.181 78.330,233.736 78.138,233.971 78.138 C 235.107 78.140,235.511 77.666,235.624 76.200 L 235.676 75.521 236.311 76.436 C 238.815 80.042,246.705 81.522,250.121 79.026 C 250.281 78.909,250.727 78.655,251.113 78.460 C 252.977 77.518,255.033 74.558,255.360 72.344 C 255.449 71.745,255.623 70.973,255.748 70.628 C 257.023 67.095,253.172 60.891,249.221 60.113 C 248.703 60.011,247.974 59.837,247.602 59.726 C 246.639 59.440,245.105 59.477,243.996 59.814 C 243.472 59.973,242.852 60.103,242.617 60.105 C 241.625 60.109,238.593 61.965,237.164 63.442 C 236.350 64.283,236.121 64.606,235.476 65.826 C 235.307 66.146,235.044 66.626,234.892 66.893 C 234.740 67.159,234.614 67.563,234.613 67.789 C 234.611 68.016,234.479 68.572,234.319 69.026 C 233.976 69.998,233.948 70.997,234.237 71.935 C 234.638 73.238,234.946 74.649,234.827 74.640 C 234.761 74.636,233.942 73.912,233.007 73.031 C 231.768 71.865,230.822 71.179,229.517 70.502 C 228.532 69.992,227.334 69.356,226.854 69.089 C 225.767 68.486,224.227 67.707,223.461 67.374 C 223.141 67.234,222.312 66.857,221.619 66.536 C 220.926 66.214,219.879 65.770,219.292 65.548 C 217.692 64.945,217.553 64.822,218.197 64.577 C 218.493 64.465,218.865 64.372,219.022 64.372 C 219.179 64.372,219.650 64.198,220.068 63.984 C 220.486 63.771,220.943 63.597,221.083 63.597 C 221.224 63.597,222.296 63.196,223.466 62.707 C 224.636 62.218,225.856 61.724,226.175 61.610 C 226.495 61.496,226.929 61.286,227.140 61.143 C 227.350 60.999,227.636 60.882,227.775 60.882 C 228.027 60.882,229.008 60.442,233.220 58.437 C 234.428 57.863,235.457 57.392,235.507 57.392 C 235.557 57.392,236.075 57.087,236.659 56.714 C 237.242 56.340,237.766 56.035,237.822 56.035 C 237.964 56.035,240.937 54.332,241.881 53.710 C 244.605 51.914,246.015 50.903,247.988 49.331 C 250.371 47.433,254.874 42.930,255.948 41.371 C 259.110 36.785,260.321 34.602,260.867 32.505 C 261.020 31.918,261.247 31.246,261.373 31.011 C 261.827 30.163,261.679 24.635,261.167 23.329 C 260.310 21.140,259.615 19.935,258.193 18.166 C 253.757 12.652,245.408 7.331,235.046 3.414 C 234.593 3.242,233.895 2.973,233.495 2.815 C 233.095 2.658,232.157 2.348,231.411 2.127 C 230.664 1.906,229.792 1.634,229.472 1.524 C 229.152 1.413,228.585 1.237,228.211 1.133 C 227.838 1.030,227.271 0.854,226.951 0.742 C 226.631 0.631,225.977 0.448,225.497 0.335 C 224.412 0.080,205.981 -0.052,205.429 0.191 M218.449 2.910 C 234.317 5.603,250.464 13.663,255.943 21.626 C 263.937 33.246,244.796 52.081,215.750 61.176 C 212.085 62.323,211.823 61.715,214.978 59.387 C 223.770 52.901,230.808 45.301,233.198 39.713 C 234.313 37.108,234.217 37.106,235.600 39.751 C 237.225 42.859,237.229 42.859,240.233 40.458 C 246.479 35.466,249.134 30.082,247.029 26.677 C 243.463 20.906,217.588 12.186,209.561 14.051 C 199.517 16.384,192.019 28.308,188.100 48.182 C 186.249 57.571,185.489 64.496,184.676 79.398 C 184.330 85.737,184.312 85.800,182.244 87.881 C 178.940 91.204,177.100 90.802,174.915 86.282 L 174.212 84.828 174.153 81.532 C 174.086 77.847,174.668 67.536,175.287 61.444 C 178.558 29.236,189.200 9.911,206.932 3.978 C 208.636 3.407,209.595 3.194,212.894 2.653 C 214.125 2.451,216.348 2.554,218.449 2.910 M215.051 17.909 C 215.411 18.055,216.327 18.230,217.087 18.296 C 217.847 18.363,218.720 18.549,219.026 18.709 C 219.332 18.868,219.916 19.000,220.323 19.000 C 220.730 19.001,221.247 19.100,221.473 19.221 C 221.698 19.341,222.368 19.547,222.962 19.678 C 224.666 20.053,225.925 20.387,226.660 20.659 C 227.033 20.798,228.037 21.132,228.890 21.402 C 229.743 21.671,231.052 22.119,231.798 22.397 C 232.545 22.675,233.330 22.952,233.543 23.013 C 235.073 23.448,240.629 26.303,242.113 27.416 L 243.432 28.405 243.492 29.463 C 243.571 30.849,243.200 31.664,241.528 33.773 C 239.699 36.081,238.100 37.102,238.100 35.962 C 238.100 34.704,236.340 32.704,235.040 32.484 C 232.212 32.006,230.584 33.425,229.855 37.005 C 229.705 37.742,229.174 38.935,228.542 39.953 C 228.307 40.333,227.855 41.074,227.538 41.601 C 227.221 42.128,226.798 42.734,226.597 42.947 C 226.396 43.160,225.725 43.989,225.106 44.789 C 223.305 47.115,216.915 53.108,214.573 54.666 C 214.343 54.819,213.674 55.350,213.088 55.846 C 212.501 56.342,211.817 56.857,211.568 56.989 C 210.335 57.645,209.398 58.856,208.557 60.882 C 208.491 61.042,208.349 61.304,208.242 61.464 C 208.134 61.624,207.966 61.981,207.869 62.258 C 207.699 62.740,207.612 62.766,205.785 62.890 C 204.736 62.961,203.529 63.145,203.102 63.299 C 202.676 63.453,201.978 63.584,201.551 63.589 C 201.125 63.595,200.542 63.721,200.255 63.870 C 199.969 64.020,199.446 64.204,199.092 64.281 C 196.548 64.831,191.753 68.342,189.765 71.110 C 189.043 72.115,188.990 72.081,189.238 70.776 C 189.345 70.211,189.433 68.593,189.433 67.182 C 189.433 65.432,189.523 64.361,189.715 63.816 C 189.870 63.377,190.053 62.122,190.122 61.029 C 190.191 59.935,190.369 58.610,190.519 58.084 C 190.668 57.558,190.790 56.631,190.790 56.024 C 190.790 55.417,190.910 54.580,191.057 54.164 C 191.204 53.748,191.389 52.756,191.469 51.959 C 191.548 51.161,191.699 50.291,191.804 50.024 C 191.909 49.758,192.069 48.898,192.161 48.114 C 192.252 47.330,192.420 46.575,192.535 46.438 C 192.649 46.300,192.797 45.725,192.864 45.159 C 192.931 44.593,193.102 43.907,193.244 43.636 C 193.386 43.364,193.503 42.853,193.503 42.501 C 193.504 42.149,193.628 41.623,193.779 41.330 C 193.930 41.038,194.144 40.367,194.254 39.837 C 194.552 38.403,195.022 36.824,195.224 36.575 C 195.323 36.454,195.493 36.049,195.602 35.676 C 195.711 35.303,195.991 34.518,196.224 33.931 C 196.457 33.345,196.750 32.591,196.876 32.257 C 197.001 31.923,197.192 31.530,197.301 31.385 C 197.409 31.239,197.707 30.640,197.964 30.053 C 198.220 29.467,198.543 28.849,198.682 28.681 C 198.820 28.512,198.934 28.285,198.934 28.175 C 198.934 28.066,199.239 27.576,199.612 27.088 C 199.985 26.599,200.291 26.137,200.291 26.062 C 200.291 25.986,200.596 25.552,200.969 25.096 C 201.343 24.641,201.648 24.178,201.648 24.067 C 201.648 23.956,202.324 23.184,203.151 22.350 C 205.274 20.209,207.224 18.995,210.179 17.974 C 211.294 17.589,214.168 17.551,215.051 17.909 M61.544 25.187 C 61.215 25.270,60.844 25.401,60.719 25.478 C 60.595 25.555,59.904 25.689,59.185 25.776 C 57.940 25.926,55.759 26.459,54.290 26.971 C 52.225 27.692,51.427 27.995,50.964 28.235 C 50.681 28.382,50.349 28.502,50.227 28.502 C 49.083 28.502,41.871 32.653,37.809 35.650 C 33.897 38.536,26.547 45.903,24.683 48.806 C 24.492 49.103,24.175 49.520,23.979 49.733 C 23.782 49.947,23.320 50.571,22.952 51.121 C 22.585 51.671,22.156 52.227,22.000 52.357 C 21.844 52.486,21.716 52.659,21.716 52.741 C 21.716 52.823,21.120 53.794,20.391 54.899 C 18.282 58.098,17.190 59.977,15.535 63.263 C 15.010 64.306,14.501 65.266,14.404 65.396 C 14.251 65.602,13.547 67.097,11.917 70.674 C 10.906 72.893,10.664 73.475,10.664 73.687 C 10.664 73.810,10.544 74.142,10.397 74.425 C 9.992 75.205,9.307 77.044,9.307 77.352 C 9.307 77.501,9.188 77.761,9.044 77.929 C 8.899 78.098,8.689 78.585,8.577 79.011 C 8.465 79.438,8.263 80.092,8.130 80.465 C 7.996 80.839,7.737 81.580,7.553 82.113 C 7.370 82.647,7.115 83.388,6.987 83.762 C 6.663 84.704,6.263 86.025,5.990 87.058 C 5.863 87.538,5.649 88.192,5.513 88.512 C 5.378 88.832,5.209 89.443,5.139 89.869 C 5.068 90.296,4.886 90.974,4.735 91.376 C 4.583 91.778,4.460 92.357,4.460 92.663 C 4.460 92.969,4.287 93.600,4.076 94.065 C 3.865 94.530,3.691 95.228,3.688 95.615 C 3.686 96.003,3.554 96.570,3.394 96.876 C 3.235 97.181,3.104 97.806,3.103 98.265 C 3.103 98.723,2.970 99.354,2.809 99.665 C 2.648 99.977,2.460 100.780,2.392 101.449 C 2.324 102.119,2.150 103.004,2.006 103.417 C 1.863 103.831,1.745 104.627,1.745 105.187 C 1.745 105.746,1.606 106.586,1.435 107.053 C 1.264 107.519,1.055 108.643,0.969 109.549 C 0.883 110.456,0.721 111.546,0.610 111.973 C 0.095 113.941,0.000 117.693,0.004 135.831 C 0.008 154.815,0.068 156.667,0.719 157.931 C 0.828 158.141,0.974 158.690,1.044 159.151 C 1.115 159.612,1.291 160.179,1.435 160.411 C 1.580 160.644,1.748 161.106,1.808 161.438 C 1.869 161.771,2.229 162.705,2.608 163.514 C 2.986 164.323,3.296 165.038,3.296 165.104 C 3.296 165.170,3.558 165.604,3.878 166.069 C 4.198 166.534,4.460 166.967,4.460 167.031 C 4.460 168.962,12.232 175.660,14.481 175.668 C 14.674 175.668,15.095 175.818,15.414 176.001 C 16.394 176.561,23.257 176.610,24.820 176.069 C 25.460 175.848,26.223 175.663,26.516 175.660 C 26.808 175.656,27.266 175.528,27.533 175.376 C 27.799 175.223,28.193 175.095,28.408 175.092 C 28.623 175.088,29.124 174.910,29.522 174.697 C 29.920 174.484,30.340 174.309,30.456 174.309 C 30.792 174.309,35.118 172.085,36.373 171.267 C 39.418 169.283,40.978 168.015,43.810 165.222 C 46.675 162.396,47.782 161.155,49.733 158.578 C 50.844 157.110,51.963 155.503,51.963 155.374 C 51.963 155.313,52.284 154.826,52.676 154.292 C 53.488 153.186,53.902 153.336,53.902 154.736 C 53.902 156.546,56.076 159.586,58.071 160.568 C 60.192 161.612,61.192 161.532,64.151 160.084 C 65.961 159.198,68.721 155.942,69.567 153.694 C 69.734 153.249,69.998 152.734,70.152 152.551 C 70.449 152.198,70.831 148.981,70.781 147.261 C 70.599 141.068,70.601 131.091,70.785 130.594 C 70.905 130.270,71.073 128.303,71.158 126.224 C 71.243 124.140,71.416 122.182,71.543 121.861 C 71.671 121.541,71.817 120.233,71.870 118.953 C 71.922 117.673,72.052 116.365,72.160 116.045 C 72.267 115.725,72.431 114.501,72.523 113.326 C 72.616 112.150,72.827 110.670,72.991 110.037 C 73.156 109.404,73.291 108.304,73.291 107.593 C 73.291 106.481,73.688 104.896,73.967 104.896 C 74.015 104.896,74.405 105.078,74.833 105.301 C 76.287 106.059,79.237 105.791,80.924 104.747 L 82.255 103.923 82.122 104.846 C 82.050 105.353,81.865 106.199,81.712 106.724 C 81.560 107.250,81.434 108.079,81.433 108.566 C 81.431 109.054,81.258 110.150,81.047 111.003 C 80.473 113.327,80.471 122.294,81.045 124.122 C 81.256 124.798,81.431 125.570,81.433 125.836 C 81.439 126.689,83.288 131.248,83.988 132.136 C 84.073 132.244,84.655 132.991,85.282 133.797 C 85.908 134.603,86.673 135.457,86.982 135.695 C 89.491 137.635,92.006 138.868,94.232 139.249 C 94.818 139.349,95.734 139.522,96.268 139.633 C 97.955 139.984,104.032 139.519,105.530 138.924 C 105.932 138.764,106.543 138.630,106.887 138.626 C 107.232 138.623,107.862 138.451,108.289 138.245 C 108.715 138.039,109.239 137.867,109.452 137.863 C 109.843 137.855,111.646 137.264,113.621 136.498 C 114.207 136.271,114.949 135.991,115.269 135.877 C 115.589 135.763,115.988 135.551,116.157 135.406 C 116.325 135.262,116.543 135.143,116.640 135.143 C 116.816 135.143,119.965 133.590,120.689 133.146 C 120.898 133.018,121.805 132.433,122.705 131.847 C 123.605 131.260,124.638 130.598,125.000 130.374 C 125.363 130.150,125.939 129.708,126.281 129.390 C 126.623 129.073,127.470 128.369,128.163 127.826 C 131.616 125.123,136.862 118.940,139.165 114.860 C 140.078 113.242,141.085 111.286,141.499 110.325 C 141.751 109.738,142.126 108.936,142.331 108.541 C 142.537 108.147,142.705 107.650,142.705 107.438 C 142.705 107.225,142.778 107.006,142.867 106.951 C 142.957 106.896,143.268 106.083,143.560 105.146 C 143.851 104.209,144.182 103.180,144.295 102.860 C 144.408 102.540,144.585 101.755,144.688 101.115 C 144.791 100.475,144.967 99.779,145.079 99.568 C 145.192 99.358,145.322 98.572,145.368 97.823 C 145.415 97.074,145.598 96.069,145.775 95.589 C 146.270 94.252,146.256 83.953,145.759 83.044 C 145.572 82.703,145.419 82.092,145.418 81.687 C 145.417 81.282,145.287 80.700,145.127 80.395 C 144.968 80.089,144.838 79.716,144.838 79.565 C 144.838 78.329,142.570 74.339,140.423 71.798 C 138.929 70.030,134.787 67.110,133.729 67.080 C 133.600 67.077,133.146 66.905,132.719 66.699 C 132.293 66.493,131.706 66.321,131.414 66.318 C 131.123 66.314,130.513 66.159,130.057 65.972 C 128.855 65.479,121.975 65.483,120.420 65.977 C 119.841 66.161,119.056 66.312,118.675 66.312 C 118.295 66.313,117.733 66.444,117.426 66.604 C 117.119 66.764,116.421 66.973,115.875 67.068 C 114.904 67.236,114.652 67.312,112.458 68.095 C 104.174 71.051,97.439 76.099,91.517 83.791 C 90.770 84.761,89.158 87.120,89.020 87.445 C 88.952 87.605,88.603 88.199,88.245 88.764 L 87.594 89.792 87.326 89.275 C 87.178 88.991,87.058 88.588,87.058 88.381 C 87.058 86.226,83.363 82.218,79.779 80.485 C 79.250 80.229,78.665 79.945,78.478 79.853 C 77.508 79.377,75.504 78.720,75.017 78.720 C 74.712 78.720,74.090 78.568,73.635 78.381 C 72.435 77.890,65.555 77.894,63.998 78.387 C 63.419 78.570,62.609 78.720,62.198 78.720 C 61.787 78.720,61.162 78.841,60.808 78.989 C 60.454 79.137,59.780 79.322,59.311 79.399 C 58.842 79.476,58.368 79.613,58.257 79.702 C 58.146 79.791,57.710 79.950,57.288 80.056 C 56.307 80.303,54.747 80.819,53.999 81.144 C 53.679 81.283,53.033 81.558,52.563 81.755 C 46.322 84.373,41.307 87.863,37.662 92.122 C 36.177 93.857,34.244 96.890,33.998 97.869 C 33.928 98.147,33.754 98.598,33.612 98.872 C 33.469 99.146,33.351 99.656,33.351 100.006 C 33.350 100.356,33.219 100.956,33.059 101.339 C 32.678 102.250,32.678 105.006,33.059 105.671 C 33.211 105.938,33.340 106.418,33.344 106.738 C 33.368 108.321,35.388 111.041,37.235 111.977 C 39.856 113.305,41.903 112.554,47.760 108.117 C 52.367 104.626,56.815 102.482,56.224 104.036 C 56.120 104.309,56.035 104.794,56.035 105.112 C 56.035 105.430,55.903 105.947,55.741 106.259 C 55.579 106.572,55.390 107.240,55.321 107.743 C 55.252 108.246,55.080 108.880,54.938 109.152 C 54.796 109.424,54.680 109.875,54.679 110.156 C 54.678 110.436,54.543 110.988,54.378 111.382 C 54.214 111.776,53.998 112.462,53.899 112.908 C 53.649 114.038,53.039 116.132,52.770 116.784 C 52.646 117.085,52.542 117.521,52.539 117.754 C 52.535 117.987,52.411 118.338,52.262 118.535 C 52.113 118.731,51.932 119.240,51.861 119.665 C 51.789 120.091,51.608 120.672,51.460 120.956 C 51.311 121.241,51.189 121.650,51.189 121.867 C 51.188 122.083,51.070 122.432,50.926 122.642 C 50.782 122.853,50.604 123.286,50.531 123.606 C 50.458 123.926,50.271 124.472,50.114 124.818 C 49.528 126.120,49.277 126.743,48.847 127.969 C 48.604 128.662,48.246 129.533,48.051 129.905 C 47.857 130.277,47.698 130.724,47.698 130.899 C 47.698 131.074,47.567 131.326,47.407 131.459 C 47.247 131.592,47.116 131.799,47.116 131.919 C 47.116 132.225,44.902 136.483,43.665 138.558 C 38.633 146.995,32.472 151.937,26.002 152.727 C 24.062 152.963,21.603 151.421,20.484 149.266 C 20.188 148.697,19.875 148.100,19.788 147.940 C 19.442 147.303,19.046 146.255,18.908 145.612 C 18.828 145.240,18.687 144.841,18.595 144.726 C 18.503 144.611,18.346 143.937,18.245 143.230 C 18.145 142.522,17.997 141.836,17.916 141.705 C 17.836 141.574,17.658 140.110,17.521 138.451 C 17.385 136.791,17.185 134.823,17.077 134.077 C 16.834 132.391,16.830 128.899,17.069 127.096 C 17.168 126.350,17.340 124.038,17.453 121.958 C 17.565 119.879,17.781 117.392,17.933 116.432 C 18.084 115.473,18.261 113.889,18.327 112.914 C 18.392 111.938,18.571 110.725,18.724 110.217 C 18.876 109.709,19.001 108.795,19.001 108.186 C 19.001 107.576,19.132 106.706,19.292 106.253 C 19.452 105.800,19.587 105.025,19.592 104.532 C 19.596 104.039,19.727 103.286,19.882 102.860 C 20.036 102.433,20.216 101.604,20.281 101.018 C 20.346 100.431,20.565 99.397,20.767 98.719 C 20.969 98.042,21.134 97.244,21.134 96.948 C 21.134 96.651,21.265 96.159,21.424 95.853 C 21.583 95.548,21.714 95.077,21.715 94.807 C 21.715 94.536,21.890 93.819,22.104 93.212 C 22.317 92.605,22.492 91.942,22.492 91.738 C 22.492 91.534,22.622 91.118,22.781 90.812 C 22.940 90.507,23.071 90.070,23.072 89.842 C 23.073 89.614,23.246 89.046,23.457 88.582 C 23.668 88.117,23.842 87.550,23.845 87.322 C 23.847 87.094,23.979 86.658,24.138 86.353 C 24.298 86.047,24.429 85.663,24.429 85.499 C 24.430 85.335,24.605 84.858,24.818 84.440 C 25.032 84.022,25.206 83.577,25.206 83.452 C 25.206 83.327,25.336 82.974,25.496 82.669 C 25.655 82.363,25.786 81.977,25.786 81.811 C 25.787 81.645,25.916 81.340,26.072 81.133 C 26.229 80.926,26.360 80.635,26.363 80.487 C 26.367 80.338,26.537 79.858,26.743 79.420 C 28.835 74.955,29.324 73.930,29.479 73.679 C 29.579 73.519,29.792 73.127,29.953 72.807 C 30.114 72.487,30.419 71.963,30.629 71.643 C 30.840 71.323,31.241 70.634,31.520 70.111 C 31.800 69.589,32.522 68.425,33.125 67.525 C 33.728 66.626,34.309 65.748,34.416 65.574 C 35.759 63.381,40.601 58.157,43.028 56.281 C 43.926 55.588,44.755 54.943,44.870 54.849 C 46.405 53.598,51.069 51.009,53.223 50.212 C 56.992 48.817,58.213 48.509,60.494 48.378 C 62.556 48.259,65.962 48.510,66.376 48.811 C 66.500 48.901,67.126 49.185,67.765 49.441 C 68.405 49.697,69.409 50.176,69.995 50.505 C 73.364 52.396,75.531 52.416,78.252 50.583 C 79.687 49.616,81.573 47.392,82.212 45.912 C 82.317 45.668,82.481 45.337,82.576 45.177 C 82.894 44.640,83.519 42.956,83.762 41.978 C 84.776 37.905,84.438 35.406,82.460 32.335 C 80.486 29.269,75.841 26.394,71.855 25.770 C 71.225 25.672,70.580 25.482,70.420 25.350 C 70.085 25.071,62.548 24.933,61.544 25.187 M71.062 29.559 C 80.034 31.847,82.867 38.325,77.954 45.320 C 75.855 48.309,74.810 48.486,70.771 46.539 C 63.893 43.224,57.341 43.658,48.638 48.007 C 28.828 57.905,16.238 84.483,13.472 122.243 C 11.737 145.929,17.189 158.695,28.053 156.384 C 42.085 153.398,52.623 136.337,60.205 104.327 C 61.627 98.321,61.684 98.573,58.977 98.881 C 54.096 99.438,50.666 101.003,45.044 105.241 C 40.519 108.652,39.801 108.977,38.598 108.159 C 36.921 107.020,36.328 103.079,37.376 100.040 C 40.648 90.553,57.028 81.549,70.061 82.075 C 82.062 82.559,87.325 90.881,81.005 99.382 C 78.757 102.407,77.443 102.509,73.407 99.971 C 71.555 98.806,71.336 98.735,70.909 99.162 C 70.579 99.492,69.180 108.053,68.356 114.784 C 67.177 124.421,66.855 129.659,66.773 140.567 C 66.725 146.943,66.627 150.389,66.482 150.843 C 65.392 154.259,62.258 157.489,60.337 157.177 C 57.826 156.770,56.708 152.174,56.843 142.818 C 56.887 139.808,56.841 138.353,56.702 138.306 C 56.589 138.268,55.804 139.780,54.957 141.666 C 48.775 155.429,40.913 164.709,31.315 169.570 C 11.126 179.793,0.317 164.191,2.818 128.436 C 5.253 93.603,15.028 65.511,31.081 47.213 C 42.461 34.241,59.652 26.650,71.062 29.559 M325.545 51.843 C 323.254 52.348,321.062 54.114,319.860 56.423 C 319.457 57.196,318.565 60.123,318.565 60.670 C 318.565 60.870,318.393 61.414,318.182 61.879 C 317.971 62.344,317.796 62.998,317.794 63.332 C 317.792 63.667,317.659 64.190,317.500 64.496 C 317.341 64.801,317.209 65.313,317.208 65.633 C 317.207 65.952,317.074 66.466,316.914 66.773 C 316.754 67.080,316.568 67.691,316.501 68.130 C 316.434 68.569,316.298 69.086,316.199 69.279 C 316.101 69.471,315.938 70.138,315.837 70.761 C 315.737 71.384,315.525 72.143,315.366 72.447 C 315.207 72.751,315.077 73.323,315.076 73.716 C 315.076 74.110,314.997 74.480,314.901 74.540 C 314.805 74.599,314.626 75.106,314.504 75.666 C 314.382 76.226,314.160 77.121,314.010 77.654 C 313.190 80.574,312.941 81.572,312.942 81.946 C 312.942 82.174,312.812 82.610,312.653 82.915 C 312.493 83.221,312.362 83.643,312.362 83.855 C 312.361 84.066,312.193 84.677,311.989 85.212 C 311.784 85.747,311.475 86.752,311.302 87.445 C 311.128 88.139,310.815 89.229,310.607 89.869 C 310.398 90.509,310.228 91.262,310.228 91.544 C 310.228 91.825,310.097 92.304,309.938 92.610 C 309.779 92.915,309.645 93.427,309.641 93.747 C 309.636 94.067,309.464 94.678,309.258 95.104 C 309.052 95.531,308.881 96.153,308.877 96.486 C 308.874 96.820,308.740 97.406,308.580 97.789 C 308.420 98.172,308.289 98.731,308.289 99.031 C 308.289 99.331,308.114 100.074,307.901 100.680 C 307.688 101.287,307.513 102.138,307.513 102.570 C 307.513 103.003,307.377 103.681,307.211 104.078 C 307.045 104.474,306.859 105.366,306.797 106.059 C 306.735 106.752,306.598 107.430,306.491 107.565 C 306.385 107.699,306.259 108.441,306.212 109.213 C 306.165 109.984,306.008 110.929,305.864 111.312 C 305.720 111.695,305.540 112.872,305.465 113.929 C 305.389 114.986,305.246 116.068,305.147 116.333 C 305.048 116.599,304.882 118.377,304.779 120.285 C 304.676 122.193,304.504 123.917,304.398 124.115 C 304.292 124.314,304.122 126.550,304.020 129.083 C 303.919 131.616,303.753 134.343,303.651 135.143 C 303.415 136.997,303.417 145.341,303.655 146.873 C 303.754 147.513,303.912 148.962,304.006 150.092 C 304.104 151.277,304.308 152.401,304.488 152.748 C 304.659 153.079,304.799 153.496,304.799 153.675 C 304.799 154.836,306.909 157.222,308.680 158.065 C 313.598 160.405,318.583 159.147,320.761 155.017 L 321.375 153.854 321.499 143.577 C 321.568 137.925,321.717 132.690,321.830 131.944 C 321.943 131.197,322.040 129.049,322.045 127.169 C 322.052 124.709,322.134 123.530,322.335 122.959 C 322.492 122.515,322.671 120.989,322.742 119.493 C 322.812 118.023,322.992 116.390,323.141 115.864 C 323.290 115.338,323.413 114.641,323.413 114.315 C 323.413 112.066,325.959 109.573,328.801 109.041 C 329.197 108.967,329.801 108.789,330.144 108.646 C 331.062 108.263,336.306 108.287,337.056 108.678 C 337.361 108.837,337.710 108.968,337.831 108.968 C 338.458 108.968,340.488 110.201,341.387 111.127 C 342.847 112.631,343.421 113.831,344.293 117.208 C 344.710 118.821,344.776 129.921,344.375 130.938 C 344.256 131.238,344.110 132.110,344.050 132.877 C 343.946 134.209,343.475 136.374,342.882 138.245 C 342.730 138.725,342.606 139.295,342.607 139.511 C 342.607 139.727,342.492 140.076,342.351 140.286 C 342.210 140.497,341.897 141.280,341.655 142.026 C 341.413 142.773,341.040 143.776,340.826 144.256 C 340.613 144.736,340.315 145.412,340.166 145.759 C 340.016 146.105,339.769 146.672,339.617 147.019 C 339.465 147.365,339.212 147.954,339.054 148.328 C 338.897 148.701,338.556 149.486,338.298 150.073 C 337.217 152.523,337.065 153.264,337.431 154.287 C 337.613 154.795,337.762 155.385,337.762 155.599 C 337.760 157.183,340.785 160.300,343.482 161.493 C 348.019 163.500,353.871 160.949,356.337 155.889 C 356.467 155.623,356.834 154.927,357.152 154.342 C 357.471 153.758,357.731 153.180,357.731 153.057 C 357.731 152.935,357.857 152.731,358.010 152.604 C 358.163 152.477,358.349 152.095,358.422 151.756 C 358.496 151.417,358.676 150.967,358.823 150.757 C 358.969 150.546,359.092 150.197,359.095 149.981 C 359.099 149.765,359.270 149.239,359.476 148.812 C 359.683 148.386,359.854 147.793,359.858 147.494 C 359.861 147.195,359.993 146.703,360.150 146.399 C 360.306 146.096,360.488 145.468,360.554 145.003 C 360.619 144.539,360.796 143.830,360.947 143.428 C 361.098 143.026,361.222 142.317,361.222 141.852 C 361.222 141.387,361.355 140.689,361.517 140.299 C 361.680 139.910,361.895 138.700,361.995 137.610 C 362.095 136.520,362.272 135.148,362.388 134.561 C 362.747 132.748,362.678 119.204,362.303 117.829 C 362.135 117.210,361.993 116.381,361.989 115.987 C 361.984 115.592,361.846 114.920,361.682 114.493 C 361.517 114.067,361.307 113.295,361.214 112.779 C 361.121 112.263,360.962 111.739,360.860 111.616 C 360.758 111.492,360.614 111.067,360.540 110.671 C 360.466 110.275,360.284 109.850,360.135 109.726 C 359.986 109.603,359.864 109.345,359.864 109.153 C 359.864 107.575,355.595 101.425,352.874 99.084 C 350.332 96.896,344.950 93.847,343.621 93.843 C 343.437 93.842,343.044 93.715,342.748 93.561 C 342.452 93.406,341.754 93.195,341.197 93.092 C 340.640 92.988,339.939 92.810,339.638 92.695 C 339.338 92.581,338.640 92.485,338.087 92.484 C 337.534 92.482,336.558 92.354,335.919 92.200 C 334.401 91.833,332.245 91.832,330.846 92.196 C 330.232 92.356,329.366 92.487,328.922 92.487 L 328.114 92.487 328.216 91.566 C 328.272 91.059,328.427 90.470,328.559 90.257 C 328.691 90.044,328.858 89.451,328.930 88.941 C 329.002 88.430,329.186 87.713,329.339 87.347 C 329.492 86.982,329.617 86.348,329.617 85.939 C 329.617 85.531,329.705 85.108,329.814 85.000 C 329.922 84.892,330.137 84.242,330.291 83.555 C 330.690 81.789,330.952 80.748,331.362 79.302 C 331.857 77.556,332.167 76.256,332.332 75.230 C 332.409 74.750,332.615 74.033,332.790 73.637 C 332.964 73.240,333.110 72.586,333.113 72.183 C 333.117 71.779,333.248 71.280,333.404 71.073 C 333.561 70.866,333.689 70.427,333.689 70.097 C 333.689 69.767,333.863 69.000,334.077 68.394 C 334.290 67.787,334.464 67.130,334.464 66.934 C 334.464 66.738,334.731 65.798,335.056 64.845 C 336.497 60.626,335.554 57.313,331.855 53.595 C 329.867 51.596,328.449 51.203,325.545 51.843 M328.765 55.933 C 329.998 56.741,331.750 59.800,331.750 61.144 C 331.750 61.758,325.432 86.978,323.105 95.652 C 322.250 98.839,322.262 98.861,324.277 97.920 C 333.966 93.390,348.072 97.312,353.953 106.172 C 358.888 113.608,360.135 124.962,357.623 139.603 C 354.970 155.060,348.650 162.173,342.791 156.294 C 340.772 154.268,340.781 154.117,343.233 148.522 C 350.378 132.215,350.741 114.931,344.077 108.290 C 337.873 102.108,323.954 103.450,320.604 110.553 C 318.822 114.333,317.596 128.445,317.596 145.185 C 317.596 149.402,317.518 151.953,317.373 152.529 C 316.427 156.288,310.158 156.195,308.512 152.397 C 306.578 147.932,307.651 123.325,310.450 107.998 C 311.662 101.358,312.885 96.325,315.655 86.573 C 316.382 84.014,317.429 80.175,317.982 78.042 C 321.494 64.499,323.024 58.913,323.448 58.083 C 324.489 56.049,327.242 54.936,328.765 55.933 M248.847 64.172 C 251.474 65.443,252.520 68.464,251.478 71.768 C 249.493 78.060,239.136 77.703,238.193 71.311 C 237.461 66.353,244.127 61.887,248.847 64.172 M392.244 64.361 C 390.571 64.743,388.149 66.300,387.194 67.609 C 386.932 67.967,386.557 68.454,386.361 68.691 C 385.907 69.238,384.489 71.655,384.489 71.881 C 384.489 71.974,384.387 72.152,384.262 72.277 C 384.138 72.401,383.929 72.790,383.800 73.140 C 382.452 76.773,381.905 78.342,381.787 78.914 C 381.710 79.287,381.552 79.767,381.434 79.981 C 381.158 80.484,380.612 82.141,379.871 84.731 C 379.672 85.424,379.408 86.237,379.285 86.537 C 379.161 86.837,379.060 87.299,379.060 87.563 C 379.060 87.827,378.885 88.385,378.672 88.803 C 378.459 89.221,378.281 89.806,378.277 90.104 C 378.273 90.401,378.146 90.863,377.993 91.129 C 377.841 91.396,377.713 91.832,377.709 92.099 C 377.705 92.365,377.528 93.043,377.314 93.604 C 377.101 94.165,376.924 94.863,376.920 95.155 C 376.917 95.447,376.745 96.166,376.539 96.752 C 376.333 97.339,376.161 98.092,376.158 98.427 C 376.154 98.761,376.021 99.285,375.862 99.590 C 375.702 99.896,375.571 100.506,375.571 100.947 C 375.570 101.388,375.446 101.987,375.295 102.278 C 375.144 102.569,374.963 103.342,374.891 103.997 C 374.820 104.651,374.638 105.617,374.487 106.143 C 374.336 106.669,374.211 107.498,374.210 107.985 C 374.209 108.472,374.074 109.307,373.910 109.840 C 373.746 110.373,373.565 111.551,373.507 112.458 C 373.450 113.364,373.287 114.498,373.146 114.978 C 373.005 115.458,372.842 117.049,372.784 118.513 C 372.721 120.116,372.580 121.351,372.432 121.616 C 372.004 122.379,372.077 133.507,372.516 134.309 C 372.702 134.651,372.857 135.218,372.859 135.570 C 372.862 135.922,373.036 136.590,373.247 137.055 C 373.458 137.519,373.631 137.978,373.631 138.073 C 373.631 138.352,375.400 140.822,375.945 141.302 C 379.186 144.164,384.597 143.602,386.436 140.212 C 386.647 139.823,386.903 139.375,387.005 139.215 C 387.511 138.420,387.947 137.045,388.070 135.852 C 388.145 135.123,388.330 134.231,388.481 133.871 C 388.631 133.511,388.754 132.658,388.754 131.974 C 388.754 131.291,388.878 130.382,389.029 129.954 C 389.180 129.526,389.364 128.359,389.439 127.361 C 389.513 126.362,389.695 125.069,389.843 124.487 C 389.991 123.904,390.115 122.857,390.120 122.160 C 390.125 121.463,390.257 120.543,390.413 120.116 C 390.570 119.690,390.752 118.643,390.819 117.790 C 390.886 116.937,391.027 116.128,391.134 115.993 C 391.240 115.858,391.366 115.117,391.415 114.345 C 391.463 113.574,391.618 112.681,391.759 112.361 C 391.900 112.041,392.080 111.255,392.157 110.616 C 392.235 109.976,392.417 109.114,392.562 108.701 C 392.707 108.287,392.826 107.563,392.826 107.092 C 392.826 106.620,392.958 105.978,393.120 105.665 C 393.282 105.352,393.464 104.680,393.525 104.172 C 393.585 103.664,393.758 102.919,393.909 102.517 C 394.060 102.115,394.183 101.521,394.183 101.198 C 394.183 100.875,394.312 100.363,394.469 100.059 C 394.625 99.756,394.807 99.128,394.873 98.663 C 394.938 98.199,395.115 97.490,395.266 97.088 C 395.417 96.686,395.543 96.118,395.547 95.827 C 395.551 95.536,395.722 94.949,395.928 94.523 C 396.134 94.096,396.306 93.546,396.309 93.301 C 396.313 93.056,396.437 92.620,396.584 92.332 C 396.731 92.044,396.916 91.415,396.994 90.936 C 397.072 90.456,397.208 89.972,397.297 89.861 C 397.386 89.751,397.547 89.314,397.653 88.892 C 397.760 88.470,398.036 87.513,398.266 86.767 C 398.496 86.020,398.771 85.061,398.878 84.634 C 398.985 84.207,399.193 83.597,399.342 83.277 C 399.883 82.110,400.000 80.481,400.000 74.133 L 400.000 67.660 399.182 66.772 C 397.552 65.004,394.331 63.884,392.244 64.361 M211.388 67.175 C 215.980 68.068,225.713 72.078,228.309 74.148 L 228.846 74.577 228.547 75.728 C 227.725 78.889,227.500 78.983,225.303 77.085 C 221.699 73.973,212.991 70.716,207.552 70.446 C 200.118 70.076,196.419 72.944,192.226 82.329 C 190.239 86.775,188.802 89.523,187.704 90.974 C 181.310 99.420,171.743 97.475,168.227 87.014 C 167.170 83.871,170.844 85.020,173.210 88.574 C 178.027 95.809,183.985 92.963,188.669 81.189 C 192.396 71.822,196.616 67.981,204.460 66.816 C 205.534 66.656,209.874 66.881,211.388 67.175 M395.069 68.617 C 398.372 70.117,398.361 72.991,395.014 83.947 C 389.830 100.911,387.967 109.365,385.355 127.775 C 384.338 134.939,384.062 136.407,383.540 137.425 C 382.030 140.369,378.317 139.492,376.963 135.873 C 374.684 129.782,376.971 109.571,381.994 91.420 C 387.137 72.835,390.695 66.630,395.069 68.617 M129.797 69.926 C 140.400 72.301,144.781 84.262,140.875 100.167 C 136.604 117.552,122.983 130.928,105.477 134.925 C 89.353 138.607,82.027 129.460,85.233 109.646 C 87.998 92.554,96.760 79.723,109.990 73.390 C 116.858 70.103,124.569 68.754,129.797 69.926 M117.305 79.679 C 103.374 82.633,94.762 95.542,94.725 113.524 C 94.702 124.793,99.453 128.096,110.495 124.487 C 121.274 120.964,129.149 111.351,131.583 98.745 C 134.228 85.049,128.438 77.318,117.305 79.679 M279.496 82.919 C 279.176 82.970,278.540 83.138,278.083 83.290 C 277.626 83.443,276.904 83.568,276.478 83.568 C 276.051 83.568,275.389 83.698,275.006 83.858 C 274.624 84.018,274.164 84.149,273.984 84.149 C 273.418 84.149,269.220 86.375,267.933 87.358 C 263.916 90.426,261.131 94.528,260.109 98.885 C 259.971 99.472,259.762 100.197,259.643 100.497 C 259.314 101.332,259.356 108.923,259.694 109.569 C 259.839 109.847,260.018 110.477,260.092 110.970 C 260.165 111.463,260.306 111.916,260.403 111.977 C 260.501 112.037,260.679 112.453,260.799 112.902 C 260.919 113.351,261.109 113.831,261.222 113.968 C 261.335 114.106,261.624 114.629,261.864 115.132 C 262.496 116.451,264.541 119.263,266.108 120.963 C 266.833 121.751,269.732 124.265,272.497 126.502 C 276.556 129.788,277.512 131.065,276.830 132.286 C 275.912 133.928,275.018 134.367,272.593 134.367 C 269.315 134.367,267.765 133.007,267.765 130.128 C 267.765 129.243,266.856 127.484,265.802 126.331 C 262.833 123.082,256.610 123.106,253.178 126.380 C 250.191 129.229,249.283 136.521,251.482 139.990 C 251.584 140.150,251.795 140.567,251.952 140.915 C 253.216 143.723,259.541 148.909,261.701 148.909 C 261.896 148.909,262.246 149.042,262.477 149.204 C 262.709 149.366,263.273 149.580,263.732 149.678 C 264.191 149.777,264.915 149.946,265.342 150.053 C 269.151 151.009,275.057 151.251,277.224 150.539 C 277.681 150.389,278.423 150.264,278.873 150.260 C 279.322 150.256,279.908 150.128,280.175 149.976 C 280.441 149.823,280.824 149.696,281.026 149.692 C 281.906 149.675,285.757 147.678,287.607 146.278 C 290.849 143.824,293.057 140.852,294.137 137.485 C 294.362 136.783,294.715 135.686,294.922 135.046 C 295.415 133.520,295.457 128.140,294.986 126.903 C 294.823 126.476,294.620 125.865,294.534 125.545 C 293.522 121.787,290.799 118.441,284.162 112.799 C 277.493 107.131,276.654 105.725,277.840 102.205 C 278.741 99.531,279.001 99.369,282.387 99.373 C 286.091 99.378,287.038 99.999,289.020 103.723 C 291.119 107.670,298.629 108.369,302.060 104.938 C 303.264 103.734,303.992 102.583,304.206 101.543 C 304.298 101.094,304.482 100.223,304.614 99.608 C 304.818 98.657,304.807 98.307,304.541 97.281 C 304.368 96.617,304.172 95.750,304.105 95.353 C 304.038 94.957,303.867 94.537,303.725 94.419 C 303.583 94.301,303.413 93.971,303.348 93.685 C 302.512 90.024,293.158 83.937,287.689 83.494 C 286.970 83.436,286.187 83.285,285.950 83.158 C 285.508 82.921,280.604 82.740,279.496 82.919 M122.831 83.334 C 125.681 84.051,126.174 84.514,127.898 88.091 C 128.238 88.795,128.280 96.752,127.948 97.373 C 127.830 97.593,127.616 98.394,127.472 99.153 C 127.118 101.021,126.812 102.127,126.387 103.067 C 126.190 103.500,126.030 103.995,126.030 104.166 C 126.030 104.337,125.884 104.767,125.706 105.122 C 125.528 105.478,125.306 105.926,125.213 106.119 C 121.684 113.407,116.630 118.071,109.366 120.745 C 108.667 121.002,107.702 121.286,107.222 121.375 C 106.743 121.464,106.104 121.632,105.804 121.748 C 103.125 122.781,100.467 121.726,99.255 119.148 L 98.618 117.791 98.643 113.110 C 98.663 109.377,98.729 108.284,98.967 107.714 C 99.131 107.322,99.322 106.418,99.392 105.706 C 99.462 104.994,99.594 104.315,99.686 104.198 C 99.779 104.080,99.910 103.557,99.979 103.034 C 100.047 102.512,100.214 101.863,100.350 101.593 C 100.486 101.323,100.660 100.764,100.738 100.351 C 100.815 99.938,100.997 99.374,101.141 99.097 C 101.285 98.821,101.404 98.477,101.405 98.333 C 101.405 98.190,101.533 97.841,101.688 97.558 C 101.843 97.275,102.198 96.563,102.476 95.977 C 102.755 95.390,103.191 94.561,103.445 94.135 C 103.700 93.708,103.971 93.228,104.048 93.068 C 105.319 90.427,110.695 85.824,113.556 84.929 C 113.858 84.835,114.716 84.525,115.463 84.242 C 116.209 83.958,117.300 83.651,117.887 83.559 C 118.473 83.467,119.389 83.311,119.922 83.212 C 121.303 82.955,121.331 82.957,122.831 83.334 M241.187 83.841 C 241.126 83.902,240.637 84.036,240.100 84.138 C 237.427 84.645,233.253 88.907,233.253 91.131 C 233.253 91.317,233.122 91.783,232.962 92.166 C 232.802 92.549,232.671 93.115,232.671 93.425 C 232.671 93.734,232.496 94.534,232.283 95.201 C 232.010 96.056,231.895 96.949,231.895 98.219 C 231.895 99.211,231.799 100.269,231.681 100.569 C 231.563 100.869,231.391 102.887,231.299 105.054 C 231.207 107.220,231.040 109.314,230.930 109.707 C 230.819 110.100,230.678 111.643,230.617 113.136 C 230.555 114.648,230.382 116.237,230.226 116.723 C 230.072 117.203,229.893 118.381,229.828 119.341 C 229.763 120.301,229.622 121.196,229.516 121.331 C 229.410 121.466,229.279 122.207,229.226 122.979 C 229.173 123.751,229.021 124.600,228.887 124.867 C 228.754 125.133,228.580 125.830,228.501 126.414 C 228.421 126.998,228.237 127.816,228.090 128.232 C 227.943 128.647,227.823 129.260,227.822 129.593 C 227.822 129.926,227.694 130.442,227.539 130.740 C 227.383 131.038,227.197 131.597,227.125 131.982 C 227.053 132.368,226.875 132.910,226.731 133.186 C 226.587 133.463,226.468 133.867,226.468 134.084 C 226.467 134.301,226.292 134.822,226.079 135.240 C 225.865 135.658,225.691 136.190,225.691 136.422 C 225.691 136.654,225.560 137.094,225.401 137.399 C 224.961 138.244,225.018 141.036,225.497 142.026 C 225.703 142.453,225.874 142.891,225.878 143.001 C 225.892 143.425,227.588 145.071,228.696 145.738 C 231.809 147.610,231.637 147.552,234.119 147.552 C 236.393 147.552,236.761 147.472,238.875 146.518 C 239.940 146.037,242.486 143.242,243.142 141.832 C 244.305 139.335,244.275 139.421,245.436 135.240 C 245.644 134.493,245.954 133.395,246.125 132.799 C 246.297 132.203,246.437 131.437,246.437 131.096 C 246.437 130.756,246.573 130.153,246.739 129.756 C 246.905 129.360,247.088 128.468,247.145 127.775 C 247.203 127.082,247.372 126.240,247.522 125.904 C 247.672 125.568,247.794 124.859,247.794 124.329 C 247.794 123.798,247.930 122.983,248.097 122.516 C 248.263 122.049,248.467 120.875,248.550 119.906 C 248.633 118.938,248.767 118.039,248.848 117.908 C 248.928 117.777,249.073 116.765,249.169 115.659 C 249.265 114.552,249.475 113.143,249.636 112.527 C 249.796 111.911,249.927 110.651,249.927 109.727 C 249.927 108.803,250.045 107.709,250.189 107.295 C 250.334 106.882,250.513 105.505,250.587 104.235 C 250.661 102.965,250.818 101.748,250.934 101.530 C 251.050 101.313,251.209 99.866,251.288 98.314 C 251.366 96.762,251.528 95.187,251.648 94.815 C 251.956 93.857,251.920 91.387,251.583 90.354 C 251.427 89.874,251.253 89.263,251.197 88.997 C 250.813 87.151,248.056 84.609,245.912 84.124 C 244.845 83.883,241.354 83.673,241.187 83.841 M286.305 87.163 C 296.312 88.898,303.813 97.048,299.708 101.723 C 297.437 104.310,293.458 103.674,291.657 100.436 C 288.016 93.889,277.669 93.222,274.759 99.346 C 272.114 104.913,273.477 108.879,279.898 114.303 C 289.815 122.678,291.290 124.795,291.312 130.683 C 291.351 140.778,283.039 147.549,271.392 146.910 C 260.592 146.317,253.746 140.920,254.261 133.406 C 254.511 129.764,256.439 127.775,259.721 127.775 C 262.476 127.775,263.789 129.114,264.080 132.222 C 264.275 134.298,264.326 134.402,265.859 135.820 C 273.462 142.859,285.839 134.454,278.879 126.977 C 278.365 126.425,276.141 124.459,273.937 122.609 C 271.733 120.758,269.348 118.612,268.636 117.838 C 255.711 103.798,267.202 83.849,286.305 87.163 M244.301 88.432 C 247.215 89.057,247.531 90.324,246.724 98.133 C 244.402 120.610,241.285 136.798,238.497 140.849 C 236.160 144.246,230.237 143.649,229.638 139.956 C 229.557 139.457,229.808 138.428,230.612 135.954 C 233.522 127.007,234.738 119.784,235.873 104.717 C 236.781 92.672,237.830 89.433,241.095 88.596 C 241.527 88.485,241.968 88.362,242.075 88.323 C 242.458 88.182,243.334 88.225,244.301 88.432 M176.054 98.188 C 177.641 98.641,180.347 98.594,181.851 98.086 C 183.721 97.454,183.603 96.965,183.742 105.875 C 184.006 122.844,181.925 134.920,177.494 142.131 C 175.605 145.204,175.428 145.202,173.593 142.075 C 171.024 137.695,170.939 137.218,172.172 134.066 C 173.946 129.527,175.450 118.973,174.464 117.978 C 173.771 117.279,169.390 121.621,167.903 124.479 L 166.844 126.515 164.048 128.399 C 160.705 130.653,160.193 131.118,158.973 133.010 C 157.516 135.270,157.511 135.276,157.226 134.999 C 157.024 134.803,157.045 134.493,157.336 133.351 C 159.402 125.256,163.864 117.855,170.447 111.607 C 174.331 107.921,174.236 108.172,173.935 102.410 C 173.712 98.140,173.786 97.596,174.569 97.783 C 174.799 97.839,175.468 98.021,176.054 98.188 M169.521 105.738 C 169.734 106.294,168.899 107.564,167.520 108.784 C 160.654 114.854,154.398 124.686,151.712 133.627 C 148.730 143.552,152.089 153.471,159.377 156.260 C 160.984 156.875,165.255 156.963,166.747 156.411 C 167.825 156.013,168.325 156.007,169.547 156.378 C 170.213 156.580,170.877 156.630,171.728 156.543 C 173.991 156.311,173.242 157.623,170.394 158.878 C 165.960 160.833,160.149 160.846,156.310 158.911 C 143.183 152.291,144.152 130.733,158.329 113.993 C 161.952 109.715,169.040 104.487,169.521 105.738 M168.289 131.837 C 168.534 131.992,168.524 132.355,168.210 134.621 C 167.809 137.518,167.875 138.381,168.790 142.260 C 169.686 146.058,170.883 147.860,172.902 148.446 C 175.183 149.110,174.295 151.701,171.789 151.696 C 165.967 151.683,162.226 137.132,166.848 132.477 C 167.711 131.608,167.838 131.551,168.289 131.837 M161.783 135.258 C 161.848 135.427,161.779 136.060,161.629 136.663 C 160.712 140.347,160.944 143.837,162.396 148.223 C 163.209 150.678,163.137 151.043,161.845 151.041 C 157.589 151.036,156.575 143.671,159.909 136.985 C 160.883 135.032,161.484 134.478,161.783 135.258 M377.605 146.615 C 374.850 147.143,370.722 150.995,370.722 153.038 C 370.722 153.187,370.570 153.606,370.385 153.969 C 369.902 154.912,369.891 161.261,370.369 162.288 C 370.543 162.661,370.739 163.207,370.805 163.500 C 371.178 165.175,373.713 168.433,375.473 169.500 C 379.583 171.992,385.172 170.520,387.256 166.397 C 387.401 166.110,387.610 165.700,387.721 165.487 C 388.406 164.166,388.608 163.566,388.747 162.442 C 388.833 161.750,389.001 161.001,389.120 160.779 C 389.436 160.188,389.383 157.256,389.045 156.665 C 388.893 156.398,388.765 155.837,388.761 155.417 C 388.755 154.690,388.560 154.160,387.457 151.872 C 386.292 149.456,383.055 146.981,380.708 146.713 C 380.175 146.652,379.476 146.563,379.157 146.516 C 378.837 146.468,378.139 146.512,377.605 146.615 M381.298 150.997 C 387.652 154.241,385.721 168.234,379.123 166.757 C 373.134 165.417,371.800 153.608,377.318 150.789 C 378.210 150.334,380.203 150.438,381.298 150.997 M147.564 155.428 C 151.444 163.167,158.540 165.736,167.304 162.575 C 169.730 161.699,170.095 162.096,168.541 163.917 C 162.050 171.524,151.790 170.890,147.706 162.629 C 146.859 160.917,146.229 158.564,145.978 156.180 C 145.640 152.958,146.194 152.695,147.564 155.428 M205.817 154.420 C 226.737 155.846,242.029 157.956,258.071 161.631 C 288.903 168.695,320.673 183.024,320.696 189.878 C 320.705 192.582,316.462 191.887,306.447 187.547 C 295.960 183.002,290.705 180.935,279.690 177.022 C 267.683 172.757,264.028 171.620,257.877 170.238 C 225.708 163.010,198.583 160.396,175.295 162.282 C 171.763 162.568,171.851 162.152,176.501 156.622 C 177.333 155.633,178.187 154.616,178.399 154.362 L 178.783 153.901 190.070 154.009 C 197.136 154.076,203.025 154.230,205.817 154.420 M143.825 157.101 C 143.935 157.235,144.125 158.017,144.249 158.840 C 144.449 160.165,145.189 163.229,145.506 164.039 C 145.797 164.783,145.238 164.990,141.832 165.397 C 138.076 165.847,137.742 165.917,126.612 168.617 C 104.816 173.904,91.125 178.312,72.322 186.094 C 66.821 188.371,63.853 188.944,62.834 187.924 C 60.258 185.348,68.653 179.127,83.180 172.847 C 93.164 168.531,113.290 162.444,127.000 159.593 C 137.194 157.473,143.380 156.557,143.825 157.101 " stroke="none" fill="#080605" fill-rule="evenodd"></path><path id="path1" d="M212.894 2.653 C 209.595 3.194,208.636 3.407,206.932 3.978 C 189.200 9.911,178.558 29.236,175.287 61.444 C 174.668 67.536,174.086 77.847,174.153 81.532 L 174.212 84.828 174.915 86.282 C 177.100 90.802,178.940 91.204,182.244 87.881 C 184.312 85.800,184.330 85.737,184.676 79.398 C 185.489 64.496,186.249 57.571,188.100 48.182 C 192.019 28.308,199.517 16.384,209.561 14.051 C 217.588 12.186,243.463 20.906,247.029 26.677 C 249.134 30.082,246.479 35.466,240.233 40.458 C 237.229 42.859,237.225 42.859,235.600 39.751 C 234.217 37.106,234.313 37.108,233.198 39.713 C 230.808 45.301,223.770 52.901,214.978 59.387 C 210.771 62.491,212.733 62.490,220.843 59.384 C 235.985 53.586,245.492 47.635,251.984 39.892 C 260.984 29.157,259.518 21.626,246.825 13.393 C 237.874 7.587,219.079 1.638,212.894 2.653 M62.046 29.169 C 33.038 33.379,10.244 67.347,4.075 115.560 C -1.681 160.546,8.657 181.044,31.315 169.570 C 40.913 164.709,48.775 155.429,54.957 141.666 C 55.804 139.780,56.589 138.268,56.702 138.306 C 56.841 138.353,56.887 139.808,56.843 142.818 C 56.708 152.174,57.826 156.770,60.337 157.177 C 62.258 157.489,65.392 154.259,66.482 150.843 C 66.627 150.389,66.725 146.943,66.773 140.567 C 66.855 129.659,67.177 124.421,68.356 114.784 C 69.180 108.053,70.579 99.492,70.909 99.162 C 71.336 98.735,71.555 98.806,73.407 99.971 C 77.443 102.509,78.757 102.407,81.005 99.382 C 87.325 90.881,82.062 82.559,70.061 82.075 C 57.028 81.549,40.648 90.553,37.376 100.040 C 36.328 103.079,36.921 107.020,38.598 108.159 C 39.801 108.977,40.519 108.652,45.044 105.241 C 50.666 101.003,54.096 99.438,58.977 98.881 C 61.684 98.573,61.627 98.321,60.205 104.327 C 52.623 136.337,42.085 153.398,28.053 156.384 C 17.189 158.695,11.737 145.929,13.472 122.243 C 16.238 84.483,28.828 57.905,48.638 48.007 C 57.341 43.658,63.893 43.224,70.771 46.539 C 72.844 47.538,73.790 47.894,74.373 47.893 C 77.641 47.888,81.254 40.588,80.097 36.325 C 78.746 31.344,70.255 27.978,62.046 29.169 M326.514 55.626 C 325.265 56.028,323.968 57.068,323.448 58.083 C 323.024 58.913,321.494 64.499,317.982 78.042 C 317.429 80.175,316.382 84.014,315.655 86.573 C 312.885 96.325,311.662 101.358,310.450 107.998 C 307.651 123.325,306.578 147.932,308.512 152.397 C 309.775 155.310,314.375 156.322,316.452 154.145 C 317.521 153.024,317.596 152.441,317.596 145.185 C 317.596 128.445,318.822 114.333,320.604 110.553 C 323.954 103.450,337.873 102.108,344.077 108.290 C 350.741 114.931,350.378 132.215,343.233 148.522 C 340.781 154.117,340.772 154.268,342.791 156.294 C 348.650 162.173,354.970 155.060,357.623 139.603 C 360.135 124.962,358.888 113.608,353.953 106.172 C 348.072 97.312,333.966 93.390,324.277 97.920 C 322.262 98.861,322.250 98.839,323.105 95.652 C 325.432 86.978,331.750 61.758,331.750 61.144 C 331.750 58.356,328.540 54.973,326.514 55.626 M243.727 63.895 C 241.053 64.645,238.880 66.836,238.294 69.372 C 236.569 76.847,249.154 79.135,251.478 71.768 C 253.166 66.414,249.181 62.365,243.727 63.895 M204.460 66.816 C 196.616 67.981,192.396 71.822,188.669 81.189 C 183.985 92.963,178.027 95.809,173.210 88.574 C 171.742 86.368,171.334 85.999,169.917 85.587 C 167.609 84.916,167.476 85.732,169.281 89.481 C 172.738 96.660,179.981 98.432,185.437 93.433 C 187.936 91.143,189.245 89.002,192.226 82.329 C 196.419 72.944,200.118 70.076,207.552 70.446 C 212.991 70.716,221.699 73.973,225.303 77.085 C 227.500 78.983,227.725 78.889,228.547 75.728 L 228.846 74.577 228.309 74.148 C 227.518 73.518,220.265 69.935,218.144 69.127 C 213.425 67.329,207.611 66.348,204.460 66.816 M391.877 68.761 C 385.052 72.162,374.190 117.093,376.329 133.077 C 376.867 137.096,378.725 139.408,381.226 139.168 C 383.567 138.943,383.901 138.023,385.355 127.775 C 387.967 109.365,389.830 100.911,395.014 83.947 C 397.538 75.686,397.932 73.517,397.309 71.325 C 396.583 68.773,394.154 67.626,391.877 68.761 M122.734 69.615 C 104.651 71.825,90.632 85.445,86.122 105.187 C 81.300 126.296,87.480 137.784,102.435 135.513 C 121.020 132.691,136.348 118.597,140.875 100.167 C 145.651 80.721,137.952 67.756,122.734 69.615 M123.936 79.516 C 130.640 80.914,133.592 88.338,131.583 98.745 C 129.149 111.351,121.274 120.964,110.495 124.487 C 99.453 128.096,94.702 124.793,94.725 113.524 C 94.749 102.013,98.845 91.270,105.420 85.483 C 110.503 81.008,118.591 78.402,123.936 79.516 M278.608 87.060 C 265.175 89.333,258.797 103.884,266.363 114.995 C 267.903 117.257,269.627 118.990,273.937 122.609 C 276.141 124.459,278.365 126.425,278.879 126.977 C 285.839 134.454,273.462 142.859,265.859 135.820 C 264.326 134.402,264.275 134.298,264.080 132.222 C 263.789 129.114,262.476 127.775,259.721 127.775 C 256.439 127.775,254.511 129.764,254.261 133.406 C 253.746 140.920,260.592 146.317,271.392 146.910 C 283.039 147.549,291.351 140.778,291.312 130.683 C 291.290 124.795,289.815 122.678,279.898 114.303 C 273.477 108.879,272.114 104.913,274.759 99.346 C 277.669 93.222,288.016 93.889,291.657 100.436 C 292.910 102.689,293.665 103.151,296.094 103.151 C 301.662 103.151,302.359 96.956,297.316 92.283 C 292.901 88.192,284.982 85.981,278.608 87.060 M242.075 88.323 C 241.968 88.362,241.527 88.485,241.095 88.596 C 237.830 89.433,236.781 92.672,235.873 104.717 C 234.738 119.784,233.522 127.007,230.612 135.954 C 229.808 138.428,229.557 139.457,229.638 139.956 C 230.237 143.649,236.160 144.246,238.497 140.849 C 241.285 136.798,244.402 120.610,246.724 98.133 C 247.433 91.270,247.351 90.381,245.889 89.151 C 245.105 88.492,242.912 88.015,242.075 88.323 M173.939 98.076 C 173.789 98.358,173.787 99.585,173.935 102.410 C 174.236 108.172,174.331 107.921,170.447 111.607 C 163.864 117.855,159.402 125.256,157.336 133.351 C 157.045 134.493,157.024 134.803,157.226 134.999 C 157.511 135.276,157.516 135.270,158.973 133.010 C 160.193 131.118,160.705 130.653,164.048 128.399 L 166.844 126.515 167.903 124.479 C 169.390 121.621,173.771 117.279,174.464 117.978 C 175.450 118.973,173.946 129.527,172.172 134.066 C 170.939 137.218,171.024 137.695,173.593 142.075 C 175.428 145.202,175.605 145.204,177.494 142.131 C 181.925 134.920,184.006 122.844,183.742 105.875 C 183.603 96.965,183.721 97.454,181.851 98.086 C 180.347 98.594,177.641 98.641,176.054 98.188 C 174.189 97.655,174.165 97.654,173.939 98.076 M166.642 106.767 C 157.725 112.722,150.767 122.702,148.047 133.439 C 143.737 150.445,153.611 163.625,167.777 159.776 C 172.062 158.612,175.000 156.208,171.728 156.543 C 170.877 156.630,170.213 156.580,169.547 156.378 C 168.325 156.007,167.825 156.013,166.747 156.411 C 165.255 156.963,160.984 156.875,159.377 156.260 C 152.089 153.471,148.730 143.552,151.712 133.627 C 154.398 124.686,160.654 114.854,167.520 108.784 C 170.777 105.904,170.136 104.433,166.642 106.767 M166.848 132.477 C 162.226 137.132,165.967 151.683,171.789 151.696 C 174.295 151.701,175.183 149.110,172.902 148.446 C 170.883 147.860,169.686 146.058,168.790 142.260 C 167.875 138.381,167.809 137.518,168.210 134.621 C 168.524 132.355,168.534 131.992,168.289 131.837 C 167.838 131.551,167.711 131.608,166.848 132.477 M160.885 135.288 C 157.334 139.313,156.985 148.593,160.308 150.605 C 162.528 151.949,163.327 151.037,162.396 148.223 C 160.944 143.837,160.712 140.347,161.629 136.663 C 162.012 135.123,161.639 134.434,160.885 135.288 M377.318 150.789 C 371.800 153.608,373.134 165.417,379.123 166.757 C 384.747 168.016,387.547 157.325,382.910 152.296 C 381.395 150.651,378.903 149.980,377.318 150.789 M145.905 153.986 C 145.555 155.415,146.586 160.366,147.706 162.629 C 151.790 170.890,162.050 171.524,168.541 163.917 C 170.095 162.096,169.730 161.699,167.304 162.575 C 158.540 165.736,151.444 163.167,147.564 155.428 C 146.651 153.608,146.112 153.139,145.905 153.986 M178.399 154.362 C 178.187 154.616,177.333 155.633,176.501 156.622 C 171.851 162.152,171.763 162.568,175.295 162.282 C 198.583 160.396,225.708 163.010,257.877 170.238 C 264.028 171.620,267.683 172.757,279.690 177.022 C 290.705 180.935,295.960 183.002,306.447 187.547 C 315.138 191.314,318.894 192.224,320.230 190.888 C 323.246 187.872,311.213 179.662,293.472 172.631 C 270.993 163.721,248.027 158.368,220.456 155.612 C 208.911 154.458,202.672 154.128,190.070 154.009 L 178.783 153.901 178.399 154.362 M138.633 157.431 C 123.192 159.867,105.794 164.483,88.318 170.780 C 76.599 175.002,64.429 182.123,62.650 185.800 C 61.032 189.142,64.690 189.254,72.322 186.094 C 91.125 178.312,104.816 173.904,126.612 168.617 C 137.742 165.917,138.076 165.847,141.832 165.397 C 145.238 164.990,145.797 164.783,145.506 164.039 C 145.189 163.229,144.449 160.165,144.249 158.840 C 143.902 156.531,144.070 156.573,138.633 157.431 " stroke="none" fill="#ffffff" fill-rule="evenodd"></path></g></svg>
